<svg version="1.1" id="Layer_1" xmlns="http://www.w3.org/2000/svg" xmlns:xlink="http://www.w3.org/1999/xlink" x="0px" y="0px"
	 width="100%" viewBox="0 0 688 688" enable-background="new 0 0 688 688" xml:space="preserve">
<path fill="#000000" opacity="1.000000" stroke="none" 
	d="
M318.728333,93.673500 
	C321.132202,83.883156 319.846313,74.343216 320.068817,64.880112 
	C320.248993,57.217960 319.944611,49.541428 320.237274,41.885883 
	C320.458801,36.091251 324.160797,32.704815 329.383789,32.770283 
	C334.508636,32.834518 337.867981,36.424801 337.928436,42.394852 
	C338.038116,53.226742 338.357788,64.080406 337.849243,74.890144 
	C336.369720,106.339874 351.406555,128.602982 376.618408,145.075775 
	C388.562012,152.879410 401.550079,158.169647 416.139038,159.238892 
	C420.921906,159.589432 421.929657,158.316803 421.902557,154.066711 
	C421.792023,136.734436 421.871643,119.400955 421.879303,102.067917 
	C421.879822,100.901314 421.830841,99.733788 421.862671,98.568268 
	C422.076385,90.747147 427.046173,85.678757 434.678406,85.478813 
	C442.078705,85.284950 447.511658,89.872833 448.031616,97.459686 
	C448.486664,104.098686 448.278839,110.784698 448.318695,117.450211 
	C448.386444,128.780624 448.387909,140.111511 448.477631,151.441711 
	C448.529785,158.025146 449.760498,158.681961 455.872559,155.951935 
	C466.196564,151.340591 472.818329,142.622818 479.658478,134.286987 
	C489.319946,122.512833 497.315186,109.683075 502.405884,95.186745 
	C504.423279,89.441986 508.752838,86.310738 514.727051,85.630997 
	C522.221252,84.778343 528.429626,90.031784 528.148560,97.574570 
	C527.808105,106.711472 526.667053,115.815826 526.014832,124.944443 
	C524.972046,139.539200 522.894653,154.031128 522.014465,168.650589 
	C521.274963,180.931366 519.731323,193.164261 518.519287,205.415939 
	C516.784729,222.950195 515.029663,240.482407 513.280212,258.015167 
	C511.892944,271.918060 510.586212,285.829803 509.071808,299.718842 
	C508.406219,305.823395 507.052948,311.828552 507.051849,318.038666 
	C507.051239,321.571960 504.183899,323.542297 501.330017,325.071838 
	C489.586395,331.365753 477.848755,337.673035 466.031555,343.826904 
	C454.807861,349.671722 443.454926,355.268280 432.224487,361.100433 
	C426.951996,363.838531 421.570557,365.503265 415.511383,365.343781 
	C405.899506,365.090759 396.276123,365.276337 386.456360,366.380005 
	C392.112061,367.801514 397.726257,369.424164 403.432373,370.601288 
	C414.217621,372.826111 424.535431,375.929199 434.296265,381.402100 
	C455.641937,393.370514 477.264191,404.856842 498.956665,416.189362 
	C506.293854,420.022400 509.384216,424.971283 509.294769,433.562622 
	C508.881836,473.224518 509.107727,512.893372 509.170685,552.559570 
	C509.180817,558.930969 506.330872,563.448425 500.750580,566.125977 
	C495.500305,568.645142 490.646912,567.216614 486.374298,563.637634 
	C482.766937,560.615967 481.864075,556.561890 481.873688,551.975830 
	C481.949219,515.976318 481.773712,479.975586 482.042236,443.977997 
	C482.083160,438.492279 480.308044,435.738617 475.514709,433.285828 
	C456.539124,423.575958 437.818024,413.369904 418.957977,403.432434 
	C410.061157,398.744690 400.156097,398.737183 390.610565,397.090485 
	C390.375793,397.479706 390.141022,397.868896 389.906281,398.258118 
	C397.591003,405.485687 405.216583,412.777435 412.975250,419.924774 
	C422.900513,429.068024 432.897461,438.134460 442.938568,447.150421 
	C446.476288,450.326935 448.375854,453.958923 448.529724,458.870361 
	C449.396271,486.526276 449.188629,514.180237 448.421661,541.826111 
	C447.908203,560.333801 448.994202,578.808350 448.982025,597.301758 
	C448.979797,600.682129 448.700867,603.937378 447.354645,607.071350 
	C444.995300,612.563721 439.140411,616.187927 433.839478,615.378662 
	C427.427521,614.399841 422.470886,609.293152 422.025024,602.968262 
	C421.826294,600.149536 422.007538,597.304688 422.001099,594.471680 
	C421.925751,561.305481 421.905792,528.138977 421.732117,494.973297 
	C421.684143,485.815247 421.063354,476.661133 420.942078,467.502075 
	C420.901215,464.415161 419.234314,462.573029 417.228363,460.790131 
	C402.672028,447.852570 388.097565,434.935425 372.920837,422.462646 
	C375.866028,427.629150 378.874329,432.760834 381.744873,437.968506 
	C391.400696,455.485840 396.054321,474.299103 394.013824,494.183289 
	C390.915558,524.375122 369.121826,548.895203 340.114685,554.099731 
	C310.545807,559.405090 281.047058,543.299011 268.977783,515.234680 
	C260.749359,496.101318 262.135620,476.623718 267.866455,457.209442 
	C271.446167,445.082520 277.351868,433.975037 283.967377,423.159180 
	C277.048553,427.560669 270.996368,432.937531 264.934326,438.274414 
	C256.433075,445.758698 248.153397,453.494751 239.649185,460.975616 
	C236.889114,463.403534 235.989441,466.151886 235.995026,469.752777 
	C236.061371,512.585449 236.013855,555.418396 235.975601,598.251221 
	C235.966873,608.036682 232.149216,613.537903 224.438080,615.045227 
	C216.928116,616.513245 208.836716,610.344971 208.823959,602.699707 
	C208.743256,554.366943 208.818802,506.033936 208.751846,457.701141 
	C208.745316,452.984375 211.376587,449.877014 214.415695,447.032562 
	C224.997589,437.128479 235.716690,427.371124 246.363037,417.535675 
	C252.919266,411.478821 259.438049,405.381439 265.707825,398.828186 
	C255.439240,398.916138 245.556168,399.712921 236.371277,404.642944 
	C218.320358,414.331787 200.203674,423.901855 181.998138,433.296143 
	C177.656815,435.536285 175.870972,438.172119 175.878387,443.331177 
	C175.930862,479.824188 175.607056,516.317871 175.359665,552.811035 
	C175.310333,560.088684 171.834549,564.924194 165.540375,566.843384 
	C160.190277,568.474731 154.112274,566.090759 150.675064,561.158203 
	C149.157181,558.979980 148.772430,556.606934 148.773499,554.057190 
	C148.791092,512.224304 148.856674,470.391205 148.735504,428.558685 
	C148.718033,422.530090 152.208633,419.483673 156.771210,417.027802 
	C171.289047,409.213257 185.846161,401.471588 200.400864,393.725769 
	C212.153809,387.471008 223.444992,380.325775 235.804764,375.240143 
	C244.609604,371.617188 254.066406,370.359131 263.174805,367.832794 
	C264.416962,367.488251 265.823425,367.583038 267.498016,365.316864 
	C258.020020,365.316864 249.330399,365.187012 240.647247,365.368011 
	C235.826492,365.468506 231.417648,364.360809 227.203964,362.179199 
	C204.726166,350.541656 182.445282,338.498291 159.678162,327.457489 
	C150.490967,323.002228 149.673721,315.587006 148.892990,307.392639 
	C146.937103,286.864258 144.919601,266.341736 142.993927,245.810547 
	C141.580551,230.741486 140.442505,215.644867 138.877106,200.592209 
	C136.813400,180.747757 135.219345,160.857895 133.311081,141.000885 
	C131.991669,127.271378 130.315262,113.554314 129.481934,99.770058 
	C129.074753,93.034912 131.680283,88.442223 137.365265,86.344742 
	C143.385437,84.123596 150.292450,86.132889 153.540466,91.742500 
	C156.442322,96.754257 158.407272,102.299309 161.141602,107.418922 
	C169.914749,123.845306 180.810440,138.673813 194.643860,151.263290 
	C198.351837,154.637848 202.785446,156.240219 207.332764,157.553513 
	C209.541916,155.883652 208.742401,153.708954 208.748993,151.843323 
	C208.809647,134.677048 208.753830,117.510399 208.783615,100.343956 
	C208.799026,91.469055 214.087830,85.829956 222.288574,85.803947 
	C230.539291,85.777786 235.830414,91.219704 235.885132,100.308807 
	C235.996506,118.807327 235.899063,137.307098 235.887817,155.806366 
	C235.887131,156.931122 235.887711,158.055893 235.887711,159.144989 
	C264.329865,161.088989 308.566498,135.654755 318.728333,93.673500 
M297.406433,285.093170 
	C277.377625,264.037872 257.348816,242.982605 237.419403,222.031830 
	C235.924026,222.968872 236.078506,223.875244 236.077316,224.660049 
	C236.050995,241.990738 236.087906,259.321625 236.003830,276.651947 
	C235.989227,279.659363 237.484711,281.668213 239.493729,283.512238 
	C255.448380,298.156372 271.422699,312.779144 287.358795,327.443451 
	C290.403412,330.245087 292.525238,330.100677 294.754089,326.289795 
	C299.742798,317.760254 307.524292,312.230316 316.410492,308.551514 
	C320.909607,306.688904 325.874878,305.341797 331.034241,306.305664 
	C344.635773,308.846802 355.439545,315.724213 363.142059,327.211823 
	C365.149963,330.206421 366.684052,330.514465 369.353027,328.051208 
	C385.513031,313.136841 401.725616,298.278625 418.024170,283.515961 
	C420.858765,280.948456 421.975616,278.156036 421.945557,274.345093 
	C421.825928,259.182007 422.005249,244.016739 421.988647,228.852371 
	C421.986633,227.017822 422.509521,224.952225 420.839935,223.032059 
	C406.346985,235.498672 393.921906,249.670441 380.598999,262.912018 
	C369.620239,273.823761 359.410309,285.510193 348.893158,296.884277 
	C346.821228,299.125000 344.729126,300.417877 341.456360,299.204407 
	C333.219269,296.150238 324.862396,296.315125 316.549896,299.000000 
	C313.356781,300.031342 310.840179,299.508118 308.530426,296.859406 
	C305.140778,292.972290 301.452576,289.345490 297.406433,285.093170 
M481.968903,296.644531 
	C483.666779,281.580872 485.364655,266.517212 487.141296,250.754990 
	C485.082764,251.349014 484.096832,251.490738 483.240753,251.902405 
	C473.483734,256.594421 463.084503,258.549438 452.375824,258.999451 
	C449.107422,259.136780 448.025421,260.599854 448.050812,263.646912 
	C448.113159,271.132965 447.838837,278.627258 448.099548,286.104279 
	C448.257294,290.627930 446.918335,294.166260 443.588928,297.172394 
	C433.590790,306.199768 423.664276,315.306458 413.702240,324.373840 
	C409.129272,328.536133 404.538574,332.678925 399.955902,336.830566 
	C410.071625,337.899231 419.469238,339.427643 428.575104,334.092682 
	C443.916718,325.104340 459.613831,316.703064 475.371704,308.456665 
	C480.165527,305.947968 482.516998,302.843842 481.968903,296.644531 
M240.781403,321.720367 
	C231.752838,313.353180 222.721481,304.989014 213.697067,296.617340 
	C210.201996,293.375092 208.602890,289.483398 208.829041,284.600372 
	C209.128983,278.124115 208.812531,271.620758 209.049240,265.139557 
	C209.196915,261.096130 208.054214,259.142761 203.577408,258.888916 
	C194.413498,258.369293 185.559570,256.192719 177.077362,252.544464 
	C175.530685,251.879257 173.772720,250.751785 171.721512,252.042465 
	C170.987289,253.667984 171.111801,255.524750 171.294296,257.309509 
	C172.780396,271.843323 174.456039,286.359100 175.780411,300.907104 
	C176.115967,304.593109 177.840988,306.453796 180.902283,308.056793 
	C198.127518,317.076599 215.247971,326.296326 232.458755,335.344025 
	C240.332687,339.483337 248.807541,337.491608 257.348358,337.080933 
	C252.000259,332.121124 246.652145,327.161285 240.781403,321.720367 
M250.837784,202.746643 
	C256.792542,203.532181 262.692871,203.528412 268.720184,202.907028 
	C287.731934,200.947052 303.732422,193.125656 316.950745,179.422516 
	C318.494202,177.822449 319.817108,176.047821 319.825867,173.767441 
	C319.879303,159.868256 319.852570,145.968750 319.852570,131.881577 
	C319.192688,132.194046 318.815857,132.252090 318.643829,132.471054 
	C300.536133,155.519913 277.376740,170.121201 248.349060,175.538239 
	C244.342361,176.285965 238.242889,173.370071 236.414520,178.756805 
	C234.995499,182.937592 236.119766,187.981995 236.117798,192.642532 
	C236.117661,192.975098 236.156128,193.307526 236.170227,193.640274 
	C236.238373,195.249481 236.899124,196.574951 238.275604,197.401123 
	C241.971176,199.619278 245.552292,202.112152 250.837784,202.746643 
M403.227600,203.878250 
	C416.531525,203.117889 421.958099,197.485001 421.949860,184.442612 
	C421.949127,183.277267 421.866974,182.106552 421.950928,180.947617 
	C422.193359,177.599579 420.789001,176.438904 417.341553,176.139786 
	C395.252747,174.223236 375.355042,166.639053 357.989807,152.644653 
	C350.768585,146.825165 344.467834,140.098160 338.011475,132.439301 
	C338.011475,144.984558 338.358856,156.628510 337.883057,168.238739 
	C337.590973,175.366638 340.539581,180.314941 345.636963,184.608093 
	C362.021820,198.407837 380.986572,204.577454 403.227600,203.878250 
M311.397736,204.984863 
	C296.274933,215.149292 279.325500,219.548904 259.685211,220.352341 
	C267.449921,227.950897 273.070190,235.515625 281.182892,240.574661 
	C281.736542,240.919922 282.393158,241.219437 283.030518,241.293488 
	C295.816864,242.778763 307.920441,241.475937 318.133575,232.574234 
	C319.018494,231.802917 320.035828,231.063080 320.125122,229.819016 
	C320.844330,219.801086 320.565948,209.800781 320.046051,198.923599 
	C316.827209,201.189819 314.414124,202.888779 311.397736,204.984863 
M341.357544,202.435135 
	C340.499695,202.034637 339.873657,201.008102 337.996124,201.700836 
	C337.996124,209.497162 338.152649,217.565308 337.933289,225.623245 
	C337.815002,229.967072 339.583130,232.851486 343.124451,235.073685 
	C352.892059,241.202835 363.960663,243.903336 374.571838,240.542130 
	C384.108551,237.521240 389.753052,228.026993 398.036407,220.263000 
	C376.515442,219.979004 358.294220,214.208847 341.357544,202.435135 
M472.846588,228.618896 
	C462.618530,214.533875 458.342834,198.699524 459.294067,181.137299 
	C454.986908,184.783127 448.348419,185.821472 448.240662,192.642914 
	C448.003815,207.635757 448.026794,222.632767 447.955353,237.628113 
	C447.944855,239.829849 448.470398,241.764496 451.205719,241.644302 
	C460.027252,241.256622 468.733154,240.342010 476.418854,235.684387 
	C476.476044,232.649384 474.468536,231.131332 472.846588,228.618896 
M166.333252,210.036804 
	C167.425491,213.571060 166.835907,217.549423 168.825348,221.064911 
	C169.604980,220.530701 170.059067,220.302170 170.404373,219.962906 
	C170.875854,219.499649 171.313095,218.984680 171.681625,218.435898 
	C181.893372,203.229248 184.613922,187.037308 178.340729,169.543076 
	C174.450302,158.693710 168.006119,149.443741 160.763046,139.120773 
	C161.098724,146.380661 161.109756,152.209854 161.683884,157.983032 
	C163.377701,175.015701 165.657791,191.993134 166.333252,210.036804 
M483.705902,214.714661 
	C485.186798,217.002625 486.296265,219.621994 489.606079,221.453354 
	C492.337250,194.053192 495.003448,167.305054 497.772400,139.526047 
	C476.678162,165.066696 469.538605,188.748932 483.705902,214.714661 
M208.908066,217.499969 
	C208.933472,210.353378 208.492844,203.166367 209.108185,196.070938 
	C209.798889,188.106598 204.216187,185.403290 198.158783,180.890869 
	C199.524170,201.967896 192.353302,219.229126 180.236481,235.084198 
	C188.684158,239.788742 197.206787,240.786499 205.769669,241.494675 
	C208.484879,241.719238 208.941422,239.638901 208.936890,237.446487 
	C208.923828,231.130981 208.916916,224.815475 208.908066,217.499969 
M318.612793,252.048660 
	C311.450806,254.355011 304.244568,256.509064 295.746643,257.947266 
	C304.200592,266.178223 311.018524,274.452057 319.894958,281.202454 
	C320.613464,272.578064 320.631012,264.186340 320.595276,255.794815 
	C320.589661,254.477371 320.498932,253.103195 318.612793,252.048660 
M360.078705,258.272278 
	C352.770233,256.208740 345.279236,254.771515 338.274017,251.215332 
	C338.274017,261.556702 338.274017,271.188812 338.274017,282.097168 
	C346.543671,273.918182 353.643188,266.778320 360.078705,258.272278 
z"/>
</svg>